HIERARCHY
ROOT Hips
{
	OFFSET 0.000000 0.000000 0.000000
	CHANNELS 6 Xposition Yposition Zposition Xrotation Yrotation Zrotation
	JOINT LeftUpLeg_virtual
	{
		OFFSET 0.000000 0.000000 0.000000
		CHANNELS 3 Xrotation Yrotation Zrotation
		JOINT LeftUpLeg
		{
			OFFSET 10.205400 -3.823500 0.155100
			CHANNELS 3 Xrotation Yrotation Zrotation
			JOINT LeftLeg
			{
				OFFSET 0.708757 -12.982077 0.567790
				CHANNELS 3 Xrotation Yrotation Zrotation
				JOINT LeftFoot
				{
					OFFSET -0.708756 -10.717838 -2.184338
					CHANNELS 3 Xrotation Yrotation Zrotation
					JOINT LeftToeBase
					{
						OFFSET 0.108149 -7.191104 7.560241
						CHANNELS 3 Xrotation Yrotation Zrotation
						JOINT LeftToe_End
						{
							OFFSET 0.070230 0.081724 4.490308
							CHANNELS 3 Xrotation Yrotation Zrotation
							End Site
							{
								OFFSET 0 0 0
							}
						}
					}
				}
			}
		}
	}
	JOINT RightUpLeg_virtual
	{
		OFFSET 0.000000 0.000000 0.000000
		CHANNELS 3 Xrotation Yrotation Zrotation
		JOINT RightUpLeg
		{
			OFFSET -10.205400 -3.823500 0.005500
			CHANNELS 3 Xrotation Yrotation Zrotation
			JOINT RightLeg
			{
				OFFSET -0.708756 -12.982134 0.610632
				CHANNELS 3 Xrotation Yrotation Zrotation
				JOINT RightFoot
				{
					OFFSET 0.708754 -10.717769 -1.945823
					CHANNELS 3 Xrotation Yrotation Zrotation
					JOINT RightToeBase
					{
						OFFSET -0.108140 -7.191069 7.372968
						CHANNELS 3 Xrotation Yrotation Zrotation
						JOINT RightToe_End
						{
							OFFSET -0.070227 0.081735 4.479403
							CHANNELS 3 Xrotation Yrotation Zrotation
							End Site
							{
								OFFSET 0 0 0
							}
						}
					}
				}
			}
		}
	}
	JOINT Spine_virtual
	{
		OFFSET 0.000000 0.000000 0.000000
		CHANNELS 3 Xrotation Yrotation Zrotation
		JOINT Spine
		{
			OFFSET 0.000000 6.876099 0.125700
			CHANNELS 3 Xrotation Yrotation Zrotation
			JOINT Spine1
			{
				OFFSET 0.000000 5.730043 0.104720
				CHANNELS 3 Xrotation Yrotation Zrotation
				JOINT Spine1_split
				{
					OFFSET 0.000000 5.730043 0.104720
					CHANNELS 3 Xrotation Yrotation Zrotation
					JOINT Spine2
					{
						OFFSET 0.000000 5.730043 0.104720
						CHANNELS 3 Xrotation Yrotation Zrotation
						JOINT Neck_virtual
						{
							OFFSET 0.000000 0.000000 0.000000
							CHANNELS 3 Xrotation Yrotation Zrotation
							JOINT Neck
							{
								OFFSET 0.000000 10.314075 0.188496
								CHANNELS 3 Xrotation Yrotation Zrotation
								JOINT Head
								{
									OFFSET 0.000000 7.643700 -2.377400
									CHANNELS 3 Xrotation Yrotation Zrotation
									JOINT HeadTop_End
									{
										OFFSET 0.000000 43.788605 -13.619600
										CHANNELS 3 Xrotation Yrotation Zrotation
										End Site
										{
											OFFSET 0 0 0
										}
									}
								}
							}
						}
						JOINT LeftShoulder_virtual
						{
							OFFSET 0.000000 0.000000 0.000000
							CHANNELS 3 Xrotation Yrotation Zrotation
							JOINT LeftShoulder
							{
								OFFSET 2.196100 4.412489 0.087492
								CHANNELS 3 Xrotation Yrotation Zrotation
								JOINT LeftShoulder_split
								{
									OFFSET 2.196100 4.412489 0.087492
									CHANNELS 3 Xrotation Yrotation Zrotation
									JOINT LeftArm
									{
										OFFSET 8.771219 -2.981674 -0.026999
										CHANNELS 3 Xrotation Yrotation Zrotation
										JOINT LeftForeArm
										{
											OFFSET 8.512804 0.000000 -0.000000
											CHANNELS 3 Xrotation Yrotation Zrotation
											JOINT LeftHand
											{
												OFFSET 18.484802 0.000000 -0.000000
												CHANNELS 3 Xrotation Yrotation Zrotation
												End Site
												{
													OFFSET 0 0 0
												}
											}
										}
									}
								}
							}
						}
						JOINT RightShoulder_virtual
						{
							OFFSET 0.000000 0.000000 0.000000
							CHANNELS 3 Xrotation Yrotation Zrotation
							JOINT RightShoulder
							{
								OFFSET -2.196100 4.412496 0.070690
								CHANNELS 3 Xrotation Yrotation Zrotation
								JOINT RightShoulder_split
								{
									OFFSET -2.196100 4.412496 0.070690
									CHANNELS 3 Xrotation Yrotation Zrotation
									JOINT RightArm
									{
										OFFSET -8.771282 -2.981682 -0.094208
										CHANNELS 3 Xrotation Yrotation Zrotation
										JOINT RightForeArm
										{
											OFFSET -8.494598 0.000000 0.000000
											CHANNELS 3 Xrotation Yrotation Zrotation
											JOINT RightHand
											{
												OFFSET -18.483803 0.000000 0.000001
												CHANNELS 3 Xrotation Yrotation Zrotation
												End Site
												{
													OFFSET 0 0 0
												}
											}
										}
									}
								}
							}
						}
					}
				}
			}
		}
	}
}
MOTION
Frames: 5
Frame Time: 0.03333333
2.088127 28.504009 -4.733149 0.000000 0.000000 0.000000 44.545384 3.707324 -3.317302 -91.512889 2.685270 19.490886 46.542798 9.794614 -3.961190 -0.456092 15.821266 -8.254059 3.155851 1.261007 -1.791380 0.000000 0.000000 0.000000 44.878701 4.023635 -1.799442 -44.162664 12.400292 -12.424045 68.543066 9.047199 -4.730809 3.380098 -1.337869 13.192083 -10.584887 1.471401 -0.697923 0.000000 0.000000 0.000000 48.280090 -2.787380 1.026847 12.243275 0.110995 -3.601042 12.104941 1.702087 -0.785543 0.115845 2.052116 1.136256 0.000000 0.000000 0.000000 26.962030 1.219430 -0.750652 -23.265134 -5.324538 6.096550 -17.918327 5.585054 -6.939841 0.000000 0.000000 0.000000 26.022372 2.338757 -0.292751 3.900916 -2.309103 7.236403 5.684212 -18.864907 -5.147203 -35.365552 -45.437349 -34.038733 1.827106 -45.787269 3.265210 0.000000 0.000000 0.000000 25.112910 1.037347 -0.076043 -2.594738 33.878677 11.782127 7.719727 9.483401 4.340991 -51.888015 22.108656 26.962293 2.557940 38.225447 -4.405299 0.000000 0.000000 0.000000 
2.079909 28.861425 -4.437389 0.000000 0.000000 0.000000 41.042508 1.551060 -1.469942 -86.367476 3.470665 18.054668 43.457038 10.413558 -3.998456 0.328356 16.540418 -9.328677 3.217134 1.315915 -1.834140 0.000000 0.000000 0.000000 41.042719 1.965065 -0.019483 -48.871151 13.456928 -12.300311 72.694974 8.056791 -4.856750 -1.409030 -1.973923 10.599356 -9.797502 0.788383 -0.490365 0.000000 0.000000 0.000000 44.236410 -4.864677 2.263510 12.822323 -0.133218 -3.716783 12.160457 1.683355 -0.583818 0.015519 2.092462 1.080871 0.000000 0.000000 0.000000 26.889137 1.174100 -0.550565 -22.470195 -5.082577 6.065291 -17.067494 6.340818 -6.286085 0.000000 0.000000 0.000000 25.812963 2.242787 -0.112029 3.923271 -1.752320 5.818178 4.585453 -19.093669 -4.637253 -33.562071 -44.165239 -35.332719 1.485474 -45.588354 2.718694 0.000000 0.000000 0.000000 24.992535 1.016659 0.055708 -2.677692 33.040562 12.326710 8.248998 9.318194 5.199038 -49.972427 21.767710 29.470128 2.629987 36.687832 -4.984854 0.000000 0.000000 0.000000 
2.057277 29.232449 -4.090073 0.000000 0.000000 0.000000 37.534881 -0.865904 0.096090 -81.043534 4.402791 16.992623 40.517714 10.908562 -4.054931 0.817095 16.886786 -10.349682 3.022121 1.374808 -1.743536 0.000000 0.000000 0.000000 37.266403 -0.631313 1.602849 -52.454801 13.853919 -12.495640 73.747957 7.215964 -4.687305 -4.591409 -2.298787 9.027388 -10.028520 0.134718 0.099132 0.000000 0.000000 0.000000 40.359120 -7.012340 3.220942 13.208927 -0.297869 -3.781614 12.125983 1.721087 -0.376611 -0.125295 2.071788 1.076860 0.000000 0.000000 0.000000 26.756267 1.207105 -0.396595 -21.588633 -4.802560 5.910324 -16.260606 6.931815 -5.761788 0.000000 0.000000 0.000000 25.526080 2.228468 0.067934 3.929951 -1.213081 4.383235 3.403181 -18.922733 -4.226087 -31.897301 -42.755779 -36.880733 1.091977 -44.631779 2.114201 0.000000 0.000000 0.000000 24.791548 1.077670 0.178525 -2.639835 32.051199 12.652348 8.733936 8.834448 5.837959 -48.069116 21.328927 31.599908 2.550537 34.939826 -5.403021 0.000000 0.000000 0.000000 
2.018190 29.623493 -3.677929 0.000000 0.000000 0.000000 34.087278 -3.307817 1.108123 -75.691856 5.526646 16.508844 37.645568 11.336385 -4.081391 1.133507 16.950677 -11.108210 2.893783 1.440798 -1.594291 0.000000 0.000000 0.000000 33.673697 -3.429622 2.689770 -54.497728 13.559679 -12.683173 71.369302 6.442359 -4.328873 -7.134103 -2.440392 8.178440 -9.875115 -0.283440 0.781967 0.000000 0.000000 0.000000 36.668502 -9.136424 3.742675 13.432401 -0.339407 -3.745098 12.028715 1.820330 -0.152432 -0.148354 2.029983 1.124828 0.000000 0.000000 0.000000 26.548778 1.304279 -0.255136 -20.707481 -4.512977 5.675271 -15.399421 7.395056 -5.368876 0.000000 0.000000 0.000000 25.161773 2.283687 0.269455 3.930247 -0.712356 3.038117 2.432901 -18.569596 -3.907532 -30.385531 -41.349142 -38.620441 0.812712 -43.209662 1.600260 0.000000 0.000000 0.000000 24.503848 1.207785 0.314394 -2.496560 30.952286 12.784026 9.134182 8.077045 6.382749 -46.115614 20.679033 33.213530 2.358191 33.305225 -5.675257 0.000000 0.000000 0.000000 
1.973485 30.032362 -3.235977 0.000000 0.000000 0.000000 30.804423 -5.606451 1.463024 -70.401239 6.773131 16.558554 34.800224 11.706257 -3.977074 1.327380 16.828917 -11.624570 2.966350 1.521083 -1.476405 0.000000 0.000000 0.000000 30.280940 -6.025959 3.047230 -54.832229 12.617869 -12.732568 66.214333 5.552785 -3.888701 -9.509534 -2.497660 7.465860 -8.978167 -0.307211 1.367594 0.000000 0.000000 0.000000 33.209302 -10.996418 3.760140 13.535984 -0.269748 -3.570996 11.889520 1.950776 0.087711 -0.173847 1.964845 1.227323 0.000000 0.000000 0.000000 26.242026 1.420772 -0.107872 -19.920916 -4.214383 5.407202 -14.359178 7.736866 -5.092110 0.000000 0.000000 0.000000 24.715400 2.363987 0.493350 3.928590 -0.340359 1.850573 1.531019 -18.054362 -3.706572 -28.979970 -40.083915 -40.431998 0.741637 -41.601709 1.269765 0.000000 0.000000 0.000000 24.127051 1.368520 0.472382 -2.281804 29.775069 12.788453 9.633138 7.101517 6.839711 -44.235399 19.716861 34.416094 2.064268 32.055881 -5.826602 0.000000 0.000000 0.000000 
